<?xml version="1.0" encoding="UTF-8"?> <svg xmlns="http://www.w3.org/2000/svg" xmlns:xlink="http://www.w3.org/1999/xlink" width="100.354px" height="100.352px" viewBox="0,0,256,255.98438"> <g fill="#ffffff" fill-rule="nonzero" stroke="none" stroke-width="1" stroke-linecap="butt" stroke-linejoin="miter" stroke-miterlimit="10" stroke-dasharray="" stroke-dashoffset="0" font-family="none" font-weight="none" font-size="none" text-anchor="none" style="mix-blend-mode: normal"> <g transform="translate(0.4477,0.44498) scale(2.55097,2.55097)"> <g> <path d="M83.93,18.308h-9.259v-2.112c0,-2.958 -2.406,-5.363 -5.363,-5.363c-2.957,0 -5.362,2.406 -5.362,5.363v2.112h-8.538v-2.112c0,-2.958 -2.406,-5.363 -5.363,-5.363c-2.958,0 -5.363,2.406 -5.363,5.363v2.112h-8.623v-2.112c0,-2.958 -2.406,-5.363 -5.363,-5.363c-2.957,0 -5.363,2.406 -5.363,5.363v2.112h-9.26c-0.829,0 -1.5,0.671 -1.5,1.5v67.858c0,0.828 0.671,1.5 1.5,1.5h67.857c0.828,0 1.5,-0.672 1.5,-1.5v-67.858c0,-0.829 -0.672,-1.5 -1.5,-1.5zM69.308,13.833c1.303,0 2.363,1.06 2.363,2.363v3.592c0,0.007 -0.002,0.013 -0.002,0.019c0,0.006 0.002,0.013 0.002,0.019v3.593c0,1.303 -1.061,2.363 -2.363,2.363c-1.302,0 -2.362,-1.06 -2.362,-2.363v-3.583c0,-0.01 0.003,-0.019 0.003,-0.029c0,-0.01 -0.003,-0.019 -0.003,-0.029v-3.583c-0.001,-1.302 1.059,-2.362 2.362,-2.362zM47.681,16.196c0,-1.303 1.06,-2.363 2.363,-2.363c1.303,0 2.363,1.06 2.363,2.363v7.224c0,1.303 -1.061,2.363 -2.363,2.363c-1.303,0 -2.363,-1.06 -2.363,-2.363zM28.332,16.196c0,-1.303 1.06,-2.363 2.363,-2.363c1.303,0 2.363,1.06 2.363,2.363v7.224c0,1.303 -1.06,2.363 -2.363,2.363c-1.303,0 -2.363,-1.06 -2.363,-2.363zM82.43,86.166h-64.858v-64.858h7.76v2.112c0,2.957 2.406,5.363 5.363,5.363c2.958,0 5.363,-2.406 5.363,-5.363v-2.112h8.623v2.112c0,2.957 2.406,5.363 5.363,5.363c2.957,0 5.363,-2.406 5.363,-5.363v-2.112h8.538v2.112c0,2.957 2.405,5.363 5.362,5.363c2.957,0 5.363,-2.406 5.363,-5.363v-2.112h7.759v64.858z"></path> <path d="M58.977,39.587c-3.784,0 -7.104,2.024 -8.933,5.047c-1.83,-3.022 -5.151,-5.047 -8.937,-5.047c-5.755,0 -10.437,4.679 -10.437,10.43c0,2.223 0.716,4.364 2.106,6.238l16.096,20.103c0.285,0.355 0.715,0.562 1.171,0.562h0.001c0.456,0 0.887,-0.208 1.171,-0.564l16.445,-20.61c0.032,-0.04 0.062,-0.082 0.09,-0.126c1.09,-1.7 1.666,-3.637 1.666,-5.603c0.001,-5.751 -4.683,-10.43 -10.439,-10.43zM65.266,53.938l-15.225,19.08l-14.889,-18.593c-0.97,-1.31 -1.482,-2.834 -1.482,-4.408c0,-4.097 3.336,-7.43 7.437,-7.43c4.101,0 7.437,3.333 7.437,7.43c0,0.828 0.671,1.5 1.5,1.5c0.829,0 1.5,-0.672 1.5,-1.5c0,-4.097 3.334,-7.43 7.433,-7.43c4.103,0 7.44,3.333 7.44,7.43c0,1.366 -0.398,2.721 -1.151,3.921z"></path> </g> </g> </g> </svg> 