<?xml version="1.0" encoding="UTF-8"?> <svg xmlns="http://www.w3.org/2000/svg" xmlns:xlink="http://www.w3.org/1999/xlink" width="100.355px" height="100.352px" viewBox="0,0,256,255.98438"> <g fill="#ffffff" fill-rule="nonzero" stroke="none" stroke-width="1" stroke-linecap="butt" stroke-linejoin="miter" stroke-miterlimit="10" stroke-dasharray="" stroke-dashoffset="0" font-family="none" font-weight="none" font-size="none" text-anchor="none" style="mix-blend-mode: normal"> <g transform="translate(0.45024,0.44753) scale(2.55094,2.55094)"> <g> <path d="M49.998,6.566c-16.658,0 -30.211,13.555 -30.211,30.217c0,5.555 1.544,10.999 4.47,15.768c0.031,0.081 0.069,0.161 0.115,0.237l23.854,39.914c0.269,0.449 0.751,0.726 1.274,0.73c0.004,0 0.009,0 0.013,0c0.518,0 1,-0.268 1.274,-0.708l24.825,-39.914c0.054,-0.086 0.098,-0.177 0.132,-0.271c2.926,-4.768 4.471,-10.209 4.471,-15.757c0,-16.661 -13.556,-30.216 -30.217,-30.216zM73.031,51.221c-0.055,0.088 -0.1,0.18 -0.134,0.275l-23.358,37.556l-22.435,-37.54c-0.036,-0.101 -0.083,-0.198 -0.141,-0.291c-2.732,-4.353 -4.176,-9.345 -4.176,-14.438c0,-15.007 12.207,-27.217 27.211,-27.217c15.008,0 27.217,12.209 27.217,27.217c0,5.091 -1.446,10.083 -4.184,14.438z"></path> <path d="M58.047,25.202c0,0 -0.001,0 -0.002,0c-2.552,0 -4.95,0.994 -6.753,2.799c-0.495,0.496 -0.929,1.036 -1.297,1.612c-1.699,-2.651 -4.669,-4.412 -8.043,-4.412c-5.268,0 -9.553,4.286 -9.553,9.553c0,2.028 0.655,3.984 1.928,5.704l14.5,18.112c0.285,0.355 0.715,0.562 1.171,0.562h0.001c0.456,0 0.887,-0.208 1.171,-0.564l14.811,-18.562c0.031,-0.04 0.061,-0.08 0.088,-0.123c1.001,-1.552 1.53,-3.326 1.53,-5.128c0.001,-5.267 -4.285,-9.553 -9.552,-9.553zM63.587,38.197l-13.591,17.033l-13.293,-16.601c-0.854,-1.154 -1.305,-2.494 -1.305,-3.875c0,-3.613 2.94,-6.553 6.553,-6.553c3.61,0 6.547,2.94 6.547,6.553c0,0.829 0.671,1.5 1.5,1.5c0.829,0 1.5,-0.671 1.5,-1.5c0,-1.75 0.681,-3.396 1.917,-4.633c1.236,-1.238 2.88,-1.919 4.63,-1.919c0.001,0 0.002,0 0.002,0c3.613,0 6.553,2.94 6.553,6.553c0,1.201 -0.35,2.39 -1.013,3.442z"></path> </g> </g> </g> </svg> 